<svg width="30" height="23" viewBox="0 0 30 23" fill="none" xmlns="http://www.w3.org/2000/svg">
<path d="M29.5025 10.0886C29.8211 10.4073 30 10.8393 30 11.2899C30 11.7404 29.8211 12.1725 29.5025 12.4911L19.8909 22.1028C19.5704 22.4123 19.1412 22.5836 18.6957 22.5797C18.2502 22.5758 17.8241 22.3971 17.5091 22.0821C17.194 21.7671 17.0153 21.3409 17.0115 20.8954C17.0076 20.45 17.1789 20.0208 17.4884 19.7003L24.1997 12.989H1.69883C1.24821 12.989 0.816039 12.8099 0.497401 12.4913C0.178762 12.1727 -0.000246944 11.7405 -0.000246944 11.2899C-0.000246944 10.8393 0.178762 10.4071 0.497401 10.0885C0.816039 9.76981 1.24821 9.5908 1.69883 9.5908H24.1997L17.4884 2.87945C17.1789 2.559 17.0076 2.12981 17.0115 1.68431C17.0153 1.23882 17.194 0.812671 17.5091 0.497648C17.8241 0.182625 18.2502 0.00393544 18.6957 6.42296e-05C19.1412 -0.00380698 19.5704 0.16745 19.8909 0.476951L29.5025 10.0886Z" fill="#101010"/>
</svg>
