<svg width="30" height="23" viewBox="0 0 30 23" fill="none" xmlns="http://www.w3.org/2000/svg">
<path d="M0.497467 10.0886C0.178939 10.4073 0 10.8393 0 11.2899C0 11.7404 0.178939 12.1725 0.497467 12.4911L10.1091 22.1028C10.4296 22.4123 10.8588 22.5836 11.3043 22.5797C11.7498 22.5758 12.1759 22.3971 12.4909 22.0821C12.806 21.7671 12.9847 21.3409 12.9885 20.8954C12.9924 20.45 12.8211 20.0208 12.5116 19.7003L5.80029 12.989H28.3012C28.7518 12.989 29.184 12.8099 29.5026 12.4913C29.8212 12.1727 30.0002 11.7405 30.0002 11.2899C30.0002 10.8393 29.8212 10.4071 29.5026 10.0885C29.184 9.76981 28.7518 9.5908 28.3012 9.5908H5.80029L12.5116 2.87945C12.8211 2.559 12.9924 2.12981 12.9885 1.68431C12.9847 1.23882 12.806 0.812671 12.4909 0.497648C12.1759 0.182625 11.7498 0.00393544 11.3043 6.42296e-05C10.8588 -0.00380698 10.4296 0.16745 10.1091 0.476951L0.497467 10.0886Z" fill="#101010"/>
</svg>
