<svg width="140" height="21" viewBox="0 0 140 21" fill="none" xmlns="http://www.w3.org/2000/svg">
<path d="M0 19.9473V0.540508H4.96536L14.1361 12.4059V0.540508H19.0761V19.9473H14.1361L4.96536 8.08187V19.9473H0Z" fill="#2C2DDD"/>
<path d="M33.9502 4.81309H28.0475V8.05613H33.6209V12.3287H28.0475V15.6747H33.9502V19.9473H23.0821V0.540508H33.9502V4.81309Z" fill="#2C2DDD"/>
<path d="M43.0022 9.60044L37.0488 0.540508H43.1795L45.7635 5.5595L48.9555 0.540508H55.0862L48.7782 9.60044L55.8969 19.9473H49.8422L46.0168 13.6156L41.5328 19.9473H35.5288L43.0022 9.60044Z" fill="#2C2DDD"/>
<path d="M62.8563 16.0351H63.9456C65.1954 16.0351 66.0905 15.872 66.6309 15.546C67.1714 15.22 67.4416 14.6967 67.4416 13.976C67.4416 13.2553 67.1714 12.732 66.6309 12.4059C66.0905 12.0799 65.1954 11.9169 63.9456 11.9169H62.8563V16.0351ZM62.8563 8.15909H63.7683C65.3221 8.15909 66.0989 7.53278 66.0989 6.28018C66.0989 5.02758 65.3221 4.40127 63.7683 4.40127H62.8563V8.15909ZM57.8909 0.540508H65.2883C67.0447 0.540508 68.379 0.969482 69.291 1.82743C70.203 2.68538 70.659 3.92082 70.659 5.53377C70.659 6.51183 70.4816 7.32688 70.127 7.97892C69.7892 8.6138 69.2656 9.15431 68.5563 9.60044C69.2656 9.73771 69.8652 9.9522 70.355 10.2439C70.8616 10.5184 71.267 10.8616 71.571 11.2734C71.8919 11.6853 72.1199 12.1485 72.255 12.6633C72.3901 13.1781 72.4576 13.7272 72.4576 14.3106C72.4576 15.22 72.2972 16.0265 71.9763 16.73C71.6723 17.4335 71.2332 18.0255 70.659 18.5059C70.1016 18.9864 69.4176 19.3467 68.607 19.587C67.7963 19.8272 66.8843 19.9473 65.8709 19.9473H57.8909V0.540508Z" fill="#2C2DDD"/>
<path d="M79.6149 10.2439C79.6149 11.0161 79.7585 11.7282 80.0456 12.3802C80.3327 13.0322 80.7212 13.5985 81.2109 14.0789C81.7007 14.5594 82.2665 14.9369 82.9083 15.2114C83.567 15.4688 84.2594 15.5975 84.9856 15.5975C85.7119 15.5975 86.3959 15.4688 87.0376 15.2114C87.6963 14.9369 88.2705 14.5594 88.7603 14.0789C89.267 13.5985 89.6639 13.0322 89.951 12.3802C90.2381 11.7282 90.3817 11.0161 90.3817 10.2439C90.3817 9.47175 90.2381 8.75965 89.951 8.10761C89.6639 7.45557 89.267 6.88932 88.7603 6.40887C88.2705 5.92842 87.6963 5.5595 87.0376 5.30212C86.3959 5.02758 85.7119 4.8903 84.9856 4.8903C84.2594 4.8903 83.567 5.02758 82.9083 5.30212C82.2665 5.5595 81.7007 5.92842 81.2109 6.40887C80.7212 6.88932 80.3327 7.45557 80.0456 8.10761C79.7585 8.75965 79.6149 9.47175 79.6149 10.2439ZM74.4216 10.2439C74.4216 8.80255 74.6834 7.46415 75.2069 6.2287C75.7305 4.9761 76.4567 3.88651 77.3856 2.95992C78.3145 2.03334 79.4207 1.31266 80.7043 0.797892C82.0047 0.265964 83.4318 0 84.9856 0C86.5225 0 87.9412 0.265964 89.2416 0.797892C90.5421 1.31266 91.6568 2.03334 92.5857 2.95992C93.5314 3.88651 94.2661 4.9761 94.7897 6.2287C95.3132 7.46415 95.575 8.80255 95.575 10.2439C95.575 11.6853 95.3132 13.0322 94.7897 14.2848C94.2661 15.5203 93.5314 16.6013 92.5857 17.5279C91.6568 18.4545 90.5421 19.1837 89.2416 19.7157C87.9412 20.2304 86.5225 20.4878 84.9856 20.4878C83.4318 20.4878 82.0047 20.2304 80.7043 19.7157C79.4207 19.1837 78.3145 18.4545 77.3856 17.5279C76.4567 16.6013 75.7305 15.5203 75.2069 14.2848C74.6834 13.0322 74.4216 11.6853 74.4216 10.2439Z" fill="#2C2DDD"/>
<path d="M103.043 10.2439C103.043 11.0161 103.187 11.7282 103.474 12.3802C103.761 13.0322 104.15 13.5985 104.639 14.0789C105.129 14.5594 105.695 14.9369 106.337 15.2114C106.995 15.4688 107.688 15.5975 108.414 15.5975C109.14 15.5975 109.824 15.4688 110.466 15.2114C111.125 14.9369 111.699 14.5594 112.189 14.0789C112.695 13.5985 113.092 13.0322 113.379 12.3802C113.667 11.7282 113.81 11.0161 113.81 10.2439C113.81 9.47175 113.667 8.75965 113.379 8.10761C113.092 7.45557 112.695 6.88932 112.189 6.40887C111.699 5.92842 111.125 5.5595 110.466 5.30212C109.824 5.02758 109.14 4.8903 108.414 4.8903C107.688 4.8903 106.995 5.02758 106.337 5.30212C105.695 5.5595 105.129 5.92842 104.639 6.40887C104.15 6.88932 103.761 7.45557 103.474 8.10761C103.187 8.75965 103.043 9.47175 103.043 10.2439ZM97.8501 10.2439C97.8501 8.80255 98.1119 7.46415 98.6354 6.2287C99.159 4.9761 99.8852 3.88651 100.814 2.95992C101.743 2.03334 102.849 1.31266 104.133 0.797892C105.433 0.265964 106.86 0 108.414 0C109.951 0 111.37 0.265964 112.67 0.797892C113.971 1.31266 115.085 2.03334 116.014 2.95992C116.96 3.88651 117.695 4.9761 118.218 6.2287C118.742 7.46415 119.004 8.80255 119.004 10.2439C119.004 11.6853 118.742 13.0322 118.218 14.2848C117.695 15.5203 116.96 16.6013 116.014 17.5279C115.085 18.4545 113.971 19.1837 112.67 19.7157C111.37 20.2304 109.951 20.4878 108.414 20.4878C106.86 20.4878 105.433 20.2304 104.133 19.7157C102.849 19.1837 101.743 18.4545 100.814 17.5279C99.8852 16.6013 99.159 15.5203 98.6354 14.2848C98.1119 13.0322 97.8501 11.6853 97.8501 10.2439Z" fill="#2C2DDD"/>
<path d="M127.105 8.54516L133.16 0.540508H139.291L131.716 9.72913L140 19.9473H133.565L127.105 11.5308V19.9473H122.14V0.540508H127.105V8.54516Z" fill="#2C2DDD"/>
</svg>
