<svg width="21" height="6" viewBox="0 0 21 6" fill="none" xmlns="http://www.w3.org/2000/svg">
<path d="M2.40154 5.84057H0V0.108879H2.40154C2.74696 0.114064 3.03439 0.155541 3.26383 0.233312C3.65463 0.365522 3.97106 0.607907 4.2131 0.960467C4.40724 1.24563 4.53961 1.55412 4.61021 1.88594C4.6808 2.21776 4.7161 2.53402 4.7161 2.83474C4.7161 3.59689 4.56734 4.24238 4.26983 4.77122C3.86642 5.48412 3.24366 5.84057 2.40154 5.84057ZM3.26761 1.57097C3.0886 1.25988 2.73436 1.10434 2.20488 1.10434H1.13081V4.84511H2.20488C2.75453 4.84511 3.13776 4.56643 3.3546 4.00907C3.4731 3.70318 3.53235 3.33895 3.53235 2.9164C3.53235 2.33312 3.4441 1.88464 3.26761 1.57097Z" fill="white"/>
<path d="M6.43145 5.84057H5.34602V0.108879H7.04034L8.05391 4.61568L9.05991 0.108879H10.7353V5.84057H9.64989V1.96371C9.64989 1.85224 9.65115 1.69669 9.65367 1.49708C9.65619 1.29488 9.65746 1.13934 9.65746 1.03046L8.60229 5.84057H7.47148L6.42388 1.03046C6.42388 1.13934 6.42514 1.29488 6.42766 1.49708C6.43018 1.69669 6.43145 1.85224 6.43145 1.96371V5.84057Z" fill="white"/>
<path d="M15.5178 5.41283C15.1018 5.80428 14.5698 6 13.9218 6C13.1201 6 12.4897 5.73558 12.0309 5.20674C11.572 4.67531 11.3425 3.94686 11.3425 3.02139C11.3425 2.02074 11.6035 1.24951 12.1254 0.707712C12.5792 0.235904 13.1566 0 13.8575 0C14.7955 0 15.4813 0.316267 15.9149 0.948801C16.1545 1.30395 16.283 1.6604 16.3007 2.01815H15.1358C15.0602 1.74336 14.9631 1.53597 14.8446 1.39598C14.6328 1.14712 14.3189 1.02268 13.9029 1.02268C13.4794 1.02268 13.1453 1.19896 12.9007 1.55152C12.6561 1.90149 12.5339 2.39793 12.5339 3.04083C12.5339 3.68373 12.6624 4.16591 12.9196 4.48736C13.1793 4.80622 13.5083 4.96565 13.9067 4.96565C14.3152 4.96565 14.6265 4.82826 14.8409 4.55347C14.9594 4.4057 15.0577 4.18406 15.1358 3.88853H16.2893C16.1885 4.51329 15.9313 5.02139 15.5178 5.41283Z" fill="white"/>
<path d="M21 0.108879V1.12378H19.3322V5.84057H18.1597V1.12378H16.4843V0.108879H21Z" fill="white"/>
</svg>
