<svg width="72" height="72" viewBox="0 0 72 72" fill="none" xmlns="http://www.w3.org/2000/svg">
<path d="M62.5237 27.0571L61.9122 25.2227L61.53 27.1335C60.46 33.3246 56.5619 48.1526 45.0205 52.6622C44.9441 52.6622 44.9441 52.7386 44.8676 52.7386L40.7402 54.8787L45.0205 53.8086C53.6574 51.5921 61.0714 46.0125 62.4472 44.866L62.6001 44.7895L62.6765 44.6367C63.5937 41.8851 64.0523 38.9806 64.0523 36.0762C64.0523 33.0188 63.5173 29.9615 62.5237 27.0571Z" fill="#606060"/>
<path d="M54.1919 41.4255L52.7397 45.935L54.9562 42.1134C59.4658 34.4701 60.7651 25.2981 60.918 23.5401V23.3873L60.8416 23.2344C58.09 17.9605 53.6568 13.6038 48.383 10.9287L46.625 10.0879L47.6951 11.693C51.3639 16.8904 59.0836 30.1134 54.1919 41.4255Z" fill="#5C73F6"/>
<path d="M52.6622 26.9804C52.6622 27.0569 52.7386 27.0569 52.7386 27.1333L54.8787 31.1842L53.8086 26.9804C51.5921 18.3435 46.0125 10.9295 44.866 9.55367L44.7895 9.40081L44.6367 9.32437C38.9806 7.56641 32.7895 7.56641 27.0571 9.47724L25.2227 10.0887L27.1335 10.4709C33.3246 11.6174 48.1526 15.5155 52.6622 26.9804Z" fill="#606060"/>
<path d="M41.4277 17.8856L45.9372 19.3378L42.0392 17.0448C34.3958 12.5352 25.2239 11.3123 23.4659 11.083H23.313L23.1602 11.1594C17.8863 13.911 13.5296 18.3442 10.8544 23.618L10.0137 25.376L11.6188 24.3059C16.8927 20.7136 30.1156 12.9938 41.4277 17.8856Z" fill="#5C73F6"/>
<path d="M26.9811 19.3377C27.0575 19.3377 27.0575 19.2612 27.1339 19.2612L31.1849 17.1211L26.9811 18.1912C18.3441 20.4077 10.9301 25.9873 9.55431 27.1338L9.40145 27.2103L9.32502 27.3631C8.40782 30.1147 7.94922 33.0192 7.94922 35.9236C7.94922 38.981 8.40782 41.9619 9.40145 44.8663L10.0129 46.7007L10.3951 44.7899C11.618 38.7517 15.5161 23.9236 26.9811 19.3377Z" fill="#606060"/>
<path d="M17.8846 30.5718L19.2604 26.1387L17.0438 29.8839C12.5343 37.5272 11.3113 46.6992 11.082 48.4571V48.61L11.1585 48.7629C13.9101 54.0368 18.3432 58.3934 23.6171 61.0686L25.375 61.9094L24.2285 60.3807C20.7126 55.1833 12.9929 41.9603 17.8846 30.5718Z" fill="#5C73F6"/>
<path d="M19.3377 45.0195C19.3377 44.9431 19.2612 44.9431 19.2612 44.8666L17.1211 40.7393L18.1912 45.0195C20.4077 53.6565 25.9873 61.0705 27.1338 62.4463L27.2103 62.5991L27.3631 62.6756C30.1147 63.5928 33.0192 64.0514 35.9236 64.0514C38.981 64.0514 41.9619 63.5928 44.8663 62.5991L46.7007 61.9877L44.7899 61.6055C38.7517 60.459 23.9236 56.5609 19.3377 45.0195Z" fill="#606060"/>
<path d="M38.6742 55.7967C35.8462 55.7967 33.0946 55.2617 30.5723 54.1916L25.9863 52.7394L29.8844 55.0324C37.5277 59.5419 46.6997 60.7649 48.4577 60.9942H48.6105L48.7634 60.9177C54.0373 58.1661 58.394 53.733 61.0691 48.4591L61.9099 46.7012L60.3812 47.8477C56.0245 50.8286 47.3876 55.7967 38.6742 55.7967Z" fill="#5C73F6"/>
<path d="M36 1.14648C16.7388 1.14648 1.14648 16.7388 1.14648 36C1.14648 55.2611 16.8153 70.9299 36.0764 70.9299C55.3376 70.9299 71.0064 55.2611 71.0064 36C70.9299 16.7388 55.3376 1.14648 36 1.14648ZM36 64.586C20.2548 64.586 7.414 51.8216 7.414 36C7.414 20.2548 20.1783 7.414 36 7.414C51.7452 7.414 64.586 20.1783 64.586 36C64.586 51.8216 51.8216 64.586 36 64.586Z" fill="#4A5262"/>
<path d="M36 0C16.1274 0 0 16.1274 0 36C0 55.8726 16.1274 72 36 72C55.8726 72 72 55.8726 72 36C72.0764 16.1274 55.8726 0 36 0ZM36 69.8599C17.3503 69.8599 2.21656 54.7261 2.21656 36.0764C2.21656 17.4268 17.3503 2.29299 36 2.29299C54.6497 2.29299 69.7834 17.4268 69.7834 36.0764C69.8599 54.6497 54.6497 69.8599 36 69.8599Z" fill="#4A5262"/>
<path d="M64.0505 45.5539C65.0441 42.573 65.6556 39.3629 65.6556 35.9998C65.6556 31.3374 64.5855 26.9043 62.5983 22.9297C62.5983 22.9297 62.5983 22.8533 62.5218 22.8533C59.0823 15.8979 52.9677 10.4711 45.5537 7.94885C42.5728 6.95521 39.3626 6.34375 35.9995 6.34375C31.3371 6.34375 26.904 7.41381 22.9295 9.40107C15.9741 12.8406 10.5473 18.9552 8.02502 26.3692C7.03139 29.3501 6.41992 32.5603 6.41992 35.9234C6.41992 40.5858 7.48999 45.0189 9.47725 48.9934C9.47725 48.9934 9.47725 49.0699 9.55368 49.0699C12.9932 56.0253 19.1078 61.452 26.5218 63.9743H26.5983C29.5792 64.9679 32.7129 65.503 36.076 65.503C40.7384 65.503 45.1715 64.4329 49.146 62.4457C49.2225 62.4457 49.2225 62.3692 49.2989 62.3692C56.1779 59.0062 61.5282 52.9679 64.0505 45.5539ZM62.2161 44.4839C60.8403 45.5539 53.5027 51.1336 44.9422 53.3501C45.0951 53.2737 45.1715 53.2737 45.3244 53.1973C56.7894 48.6877 60.7639 34.3183 62.0632 27.2864C62.9804 30.038 63.5155 33.0189 63.5155 36.0762C63.5155 38.9807 63.0569 41.8087 62.2161 44.4839ZM18.8785 35.9998C18.8785 26.5221 26.5983 18.8023 36.076 18.8023C45.5537 18.8023 53.2734 26.5221 53.2734 35.9998C53.2734 45.4775 45.4772 53.1973 35.9995 53.1973C26.5218 53.1973 18.8785 45.4775 18.8785 35.9998ZM60.4581 23.5412C60.2288 25.2992 59.0059 34.3947 54.5728 41.8852C54.5728 41.8087 54.6492 41.7323 54.6492 41.5794C59.5409 30.2673 52.2798 17.2737 48.2288 11.3883C53.5027 14.0635 57.783 18.2673 60.4581 23.5412ZM44.4836 9.85967C45.5537 11.2355 51.1333 18.573 53.3499 27.1336C53.2734 26.9807 53.2734 26.9043 53.197 26.7514C48.6874 15.2864 34.318 11.3119 27.3626 10.0125C30.1142 9.09534 33.0951 8.56031 36.1524 8.56031C38.9804 8.56031 41.8085 9.01891 44.4836 9.85967ZM23.5409 11.5412C25.2989 11.7705 34.3944 12.9934 41.8849 17.4266C41.8085 17.4266 41.732 17.3501 41.6556 17.3501C30.3435 12.4584 17.3499 19.7195 11.4645 23.7705C14.0632 18.573 18.2671 14.2164 23.5409 11.5412ZM9.85941 27.5922C11.2352 26.5221 18.5728 20.9425 27.0569 18.7259C26.9804 18.8023 26.8276 18.8023 26.7511 18.8788C15.2862 23.3883 11.3116 37.7578 10.0123 44.7132C9.09508 41.9616 8.56005 38.9807 8.56005 35.9234C8.56005 33.0953 9.01865 30.2673 9.85941 27.5922ZM11.5409 48.5348C11.7702 46.7769 12.9932 37.6813 17.4263 30.1909C17.4263 30.2673 17.3499 30.3437 17.3499 30.4202C12.4581 41.7323 19.7193 54.7259 23.7702 60.6113C18.5728 58.0125 14.2161 53.7323 11.5409 48.5348ZM27.5919 62.2164C26.5218 60.8406 20.9422 53.503 18.7257 44.9425C18.8021 45.0953 18.8021 45.1718 18.8785 45.3246C23.3881 56.7896 37.7575 60.7641 44.7893 62.0635C42.0378 62.9807 39.0569 63.5157 35.9995 63.5157C33.0951 63.5157 30.2671 63.0571 27.5919 62.2164ZM48.5346 60.4584C46.7766 60.2291 37.6811 59.0062 30.1906 54.573C30.2671 54.573 30.3435 54.6495 30.4199 54.6495C33.0951 55.796 35.8467 56.331 38.6747 56.331C47.5409 56.331 56.1779 51.3629 60.6874 48.2291C58.0123 53.503 53.732 57.7832 48.5346 60.4584Z" fill="white"/>
<path d="M30.7255 24.306C30.3433 24.306 29.9611 24.0767 29.8083 23.6945C29.579 23.1595 29.7318 22.548 30.2669 22.2423C32.0248 21.4015 33.8592 20.8665 35.8465 20.79C36.4579 20.79 36.9165 21.2486 36.9165 21.7837C36.9165 22.3951 36.4579 22.8537 35.9229 22.8537C34.2414 22.9302 32.7127 23.3123 31.1841 24.0767C31.0312 24.2295 30.8783 24.306 30.7255 24.306Z" fill="#5C73F6"/>
<path d="M22.93 33.1722C22.7772 33.1722 22.7007 33.1722 22.5479 33.0958C22.0128 32.8665 21.7071 32.255 21.9364 31.72C22.0128 31.5671 23.5415 27.4397 27.1339 24.3059C27.5925 23.9238 28.2804 24.0002 28.6625 24.3824C29.0447 24.841 28.9683 25.5289 28.5861 25.911C25.3759 28.6626 24.0001 32.4079 23.9237 32.4079C23.7708 32.8665 23.3886 33.1722 22.93 33.1722Z" fill="#5C73F6"/>
</svg>
