<svg width="15" height="15" viewBox="0 0 15 15" fill="none" xmlns="http://www.w3.org/2000/svg">
<path d="M1.8 3.6C2.8 3.6 3.6 2.7875 3.6 1.8C3.6 0.8125 2.7875 0 1.8 0C0.8125 0 0 0.8125 0 1.8C0 2.7875 0.8125 3.6 1.8 3.6ZM5.3125 4.9625V14.9875H8.4125V10.0375C8.4125 8.725 8.6625 7.4625 10.275 7.4625C11.8875 7.4625 11.8875 8.9625 11.8875 10.1125V14.9875H15V9.4875C15 6.7875 14.425 4.7125 11.275 4.7125C9.7625 4.7125 8.75 5.5375 8.3375 6.325H8.3V4.95H5.325L5.3125 4.9625ZM0.25 4.9625H3.3625V14.9875H0.25V4.9625Z" fill="black"/>
</svg>
