<svg width="16" height="24" viewBox="0 0 16 24" fill="none" xmlns="http://www.w3.org/2000/svg">
<path d="M4.00003 24C6.20805 24 8.00006 22.208 8.00006 20V16H4.00003C1.79201 16 0 17.792 0 20C0 22.208 1.79201 24 4.00003 24Z" fill="#0ACF83"/>
<path d="M0 12C0 9.79201 1.79201 8 4.00003 8H8.00006V16H4.00003C1.79201 16 0 14.208 0 12Z" fill="#A259FF"/>
<path d="M0 4.00003C0 1.79201 1.79201 0 4.00003 0H8.00006V8.00005H4.00003C1.79201 8.00005 0 6.20804 0 4.00003Z" fill="#F24E1E"/>
<path d="M8 0H12C14.2081 0 16.0001 1.79201 16.0001 4.00003C16.0001 6.20804 14.2081 8.00005 12 8.00005H8V0Z" fill="#FF7262"/>
<path d="M16.0001 12C16.0001 14.208 14.2081 16 12 16C9.79202 16 8 14.208 8 12C8 9.79201 9.79202 8 12 8C14.2081 8 16.0001 9.79201 16.0001 12Z" fill="#1ABCFE"/>
</svg>
