<svg width="16" height="16" viewBox="0 0 16 16" fill="none" xmlns="http://www.w3.org/2000/svg">
<path d="M1.99979 8.00019C1.99979 8.177 2.07002 8.34657 2.19505 8.4716C2.32007 8.59662 2.48964 8.66686 2.66645 8.66686L11.7238 8.66686L8.19445 12.1949C8.06927 12.32 7.99894 12.4898 7.99894 12.6669C7.99894 12.8439 8.06927 13.0137 8.19445 13.1389C8.31963 13.264 8.48942 13.3344 8.66645 13.3344C8.84349 13.3344 9.01327 13.264 9.13845 13.1389L13.8051 8.47219C13.8672 8.41026 13.9165 8.3367 13.9501 8.2557C13.9837 8.17471 14.001 8.08788 14.001 8.00019C14.001 7.9125 13.9837 7.82567 13.9501 7.74468C13.9165 7.66369 13.8672 7.59012 13.8051 7.52819L9.13845 2.86152C9.07647 2.79954 9.00288 2.75037 8.9219 2.71683C8.84091 2.68328 8.75411 2.66602 8.66645 2.66602C8.48942 2.66602 8.31963 2.73634 8.19445 2.86152C8.06927 2.98671 7.99894 3.15649 7.99894 3.33352C7.99894 3.51056 8.06927 3.68034 8.19445 3.80552L11.7238 7.33352L2.66645 7.33352C2.48964 7.33352 2.32007 7.40376 2.19505 7.52879C2.07002 7.65381 1.99979 7.82338 1.99979 8.00019Z" fill="white"/>
</svg>
