<svg width="300" height="37" viewBox="0 0 300 37" fill="none" xmlns="http://www.w3.org/2000/svg">
<path d="M22.571 7.53888C15.6397 7.53888 10.8414 11.9735 10.8414 18.0343C10.8414 24.2426 15.6397 28.6774 22.571 28.6774C29.5022 28.6774 34.4787 24.2426 34.4787 18.0343C34.4787 12.1212 29.6801 7.53888 22.571 7.53888ZM22.571 36.3639C9.59723 36.3639 0 28.9729 0 18.0343C0 6.94755 9.59723 0 22.571 0C35.5451 0 45.1423 6.94755 45.1423 18.0343C45.1423 28.9729 35.5451 36.3639 22.571 36.3639Z" fill="#0D0A26"/>
<path d="M62.2046 22.0237V31.1886C62.2046 35.0321 59.0056 35.7712 57.2281 35.7712C55.4509 35.7712 52.252 35.0321 52.252 31.1886V5.76357C52.252 2.5114 54.0292 1.0332 57.939 1.0332H75.3563C79.444 1.0332 80.1549 3.39826 80.1549 4.58091C80.1549 5.76357 79.444 8.12863 75.3563 8.12863H62.2046V15.2241H74.1121C78.0219 15.2241 78.7331 17.5891 78.7331 18.624C78.7331 19.8064 78.0219 22.0237 74.1121 22.0237H62.2046Z" fill="#0D0A26"/>
<path d="M95.6167 22.0237V31.1886C95.6167 35.0321 92.4177 35.7712 90.6405 35.7712C88.863 35.7712 85.6641 35.0321 85.6641 31.1886V5.76357C85.6641 2.5114 87.4413 1.0332 91.3514 1.0332H108.768C112.856 1.0332 113.567 3.39826 113.567 4.58091C113.567 5.76357 112.856 8.12863 108.768 8.12863H95.6167V15.2241H107.524C111.434 15.2241 112.145 17.5891 112.145 18.624C112.145 19.8064 111.434 22.0237 107.524 22.0237H95.6167Z" fill="#0D0A26"/>
<path d="M134.181 7.68507H128.849V15.6674H133.648C136.847 15.6674 140.935 14.9283 140.935 11.5286C140.935 8.42417 137.202 7.68507 134.181 7.68507ZM132.581 21.7282H129.027V31.3364C129.027 35.1799 125.65 35.919 124.051 35.919C122.451 35.919 119.074 35.1799 119.074 31.3364V5.76357C119.074 2.5114 120.852 1.0332 124.762 1.0332H134.892C146.444 1.0332 150.709 5.76357 150.709 11.3806C150.709 15.9632 147.51 19.2151 142.356 20.5455L149.999 29.1191C150.887 30.154 151.242 31.1886 151.242 31.9277C151.242 34.145 149.11 35.7712 146.444 35.7712C145.2 35.7712 143.6 35.3277 142.179 33.7017L132.581 21.7282Z" fill="#0D0A26"/>
<path d="M178.437 7.53888C171.505 7.53888 166.707 11.9735 166.707 18.0343C166.707 24.2426 171.505 28.6774 178.437 28.6774C185.368 28.6774 190.343 24.2426 190.343 18.0343C190.343 12.1212 185.368 7.53888 178.437 7.53888ZM178.437 36.3639C165.462 36.3639 155.865 28.9729 155.865 18.0343C155.865 6.94755 165.462 0 178.437 0C191.412 0 201.006 6.94755 201.006 18.0343C201.006 28.9729 191.412 36.3639 178.437 36.3639Z" fill="#0D0A26"/>
<path d="M213.981 35.4759C210.071 35.4759 208.295 33.9977 208.295 30.7458V5.1727C208.295 1.18143 211.67 0.442383 213.269 0.442383C214.871 0.442383 218.245 1.18143 218.245 5.1727V28.0849H229.975C234.065 28.0849 234.951 30.5978 234.951 31.6327C234.951 32.8153 234.242 35.3281 229.975 35.3281H213.981V35.4759Z" fill="#0D0A26"/>
<path d="M245.261 35.4759C241.35 35.4759 239.574 33.9977 239.574 30.7458V5.1727C239.574 1.18143 242.949 0.442383 244.548 0.442383C246.15 0.442383 249.525 1.18143 249.525 5.1727V28.0849H261.257C265.344 28.0849 266.231 30.5978 266.231 31.6327C266.231 32.8153 265.521 35.3281 261.257 35.3281H245.261V35.4759Z" fill="#0D0A26"/>
<path d="M269.965 30.3025C269.965 28.233 271.92 26.4593 274.585 26.4593C275.651 26.4593 276.717 26.7548 277.96 27.6419C279.562 28.5288 282.404 29.5634 284.892 29.5634C287.381 29.5634 289.869 28.5288 289.869 25.8679C289.869 23.2071 286.671 22.468 281.338 20.9898C276.008 19.5116 270.851 17.2943 270.851 11.0857C270.851 3.39925 279.206 0.294922 286.848 0.294922C290.046 0.294922 293.78 1.03394 296.268 2.2166C298.4 3.25123 298.933 4.43389 298.933 5.61654C298.933 7.53804 297.154 9.31202 294.669 9.31202C293.78 9.31202 293.247 9.16425 291.824 8.57292C289.513 7.53804 287.914 7.09473 286.315 7.09473C283.47 7.09473 280.805 8.12937 280.805 10.4947C280.805 12.712 283.293 13.4511 287.204 14.4857C292.89 15.9639 299.999 18.0334 299.999 24.8333C299.999 32.8156 292.357 36.3633 284.183 36.3633C280.095 36.3633 274.762 35.1806 272.274 33.5547C270.498 32.372 269.965 31.1896 269.965 30.3025Z" fill="#0D0A26"/>
</svg>
