<svg width="15" height="15" viewBox="0 0 15 15" fill="none" xmlns="http://www.w3.org/2000/svg">
<path d="M10.6008 0.77628H4.39921C2.39813 0.77628 0.77628 2.39842 0.77628 4.3995V10.6005C0.77628 12.6016 2.39842 14.2238 4.3995 14.2238H10.6005C12.6016 14.2238 14.2238 12.6016 14.2238 10.6005V4.3995C14.2238 2.39842 12.6019 0.77628 10.6008 0.77628Z" stroke="black" stroke-width="1.5" stroke-miterlimit="10"/>
<path d="M7.49937 10.7454C9.29209 10.7454 10.7454 9.29209 10.7454 7.49937C10.7454 5.70665 9.29209 4.25337 7.49937 4.25337C5.70665 4.25337 4.25337 5.70665 4.25337 7.49937C4.25337 9.29209 5.70665 10.7454 7.49937 10.7454Z" stroke="black" stroke-width="1.5" stroke-miterlimit="10"/>
<path d="M11.4421 4.25351C11.8262 4.25351 12.1376 3.94213 12.1376 3.55802C12.1376 3.17392 11.8262 2.86253 11.4421 2.86253C11.058 2.86253 10.7466 3.17392 10.7466 3.55802C10.7466 3.94213 11.058 4.25351 11.4421 4.25351Z" fill="black"/>
</svg>
