<svg width="200" height="100" viewBox="0 0 200 100" fill="none" xmlns="http://www.w3.org/2000/svg">
<g filter="url(#filter0_dddd_93_727)">
<rect width="200" height="100" rx="8" fill="white"/>
<rect x="0.5" y="0.5" width="199" height="99" rx="7.5" stroke="#D5D5D4"/>
<g clip-path="url(#clip0_93_727)">
<path d="M70.5659 42.1928C71.2047 42.8346 71.2047 43.9044 70.5659 44.5462C69.927 45.188 68.8622 45.188 68.2233 44.5462C67.5844 43.9044 67.5844 42.8346 68.2233 42.1928C68.8622 41.551 69.927 41.551 70.5659 42.1928Z" fill="#F25924"/>
<path d="M56.5102 56.3134C57.1491 56.9552 57.1491 58.0249 56.5102 58.6668C55.8713 59.3086 54.8065 59.3086 54.1676 58.6668C53.5288 58.0249 53.5288 56.9552 54.1676 56.3134C54.8065 55.6716 55.8287 55.6716 56.5102 56.3134Z" fill="#F25924"/>
<path d="M67.2007 41.1664C67.8396 40.5245 68.6488 40.225 69.4581 40.2678L68.8618 39.8827C66.86 38.6418 64.6452 38 62.3452 38C59.0656 38 55.9564 39.2837 53.6138 41.6371C49.5675 45.7447 48.8435 52.0347 51.8249 56.9126L52.2083 57.5117C52.2083 56.6987 52.5064 55.8857 53.1027 55.2439C53.8694 54.4737 54.9342 54.1742 55.9138 54.3881L55.7434 54.0886C54.0823 51.1362 54.5934 47.4136 56.9786 45.0174C58.3842 43.6053 60.3008 42.7924 62.3026 42.7924C63.5804 42.7924 64.8582 43.1347 66.0081 43.7765L66.3063 43.9476C66.1359 43.0063 66.4341 41.9366 67.2007 41.1664Z" fill="#295C80"/>
<path d="M72.865 43.9047L72.4817 43.3057C72.4817 44.1187 72.1835 44.9316 71.5872 45.5735C70.8206 46.3437 69.7558 46.6432 68.7761 46.4293L68.9465 46.7288C70.6076 49.6812 70.0965 53.4038 67.7114 55.8C66.3058 57.212 64.3891 58.025 62.3873 58.025C61.1096 58.025 59.8318 57.6827 58.6818 57.0409L58.3836 56.8697C58.5966 57.8539 58.2985 58.9236 57.5318 59.6938C56.8929 60.3356 56.0837 60.6351 55.2744 60.5923L55.8707 60.9775C57.8299 62.1756 60.0874 62.8174 62.3447 62.8174C65.6243 62.8174 68.7336 61.5337 71.0761 59.1803C75.165 55.1154 75.889 48.8254 72.865 43.9047Z" fill="#4DBABD"/>
<path d="M83.5137 47.3282C81.8526 47.3282 80.7027 48.6119 80.7027 50.3663C80.7027 52.1633 81.8526 53.4471 83.5137 53.4471C85.1748 53.4471 86.3674 52.1633 86.3674 50.3663C86.3674 48.6547 85.2174 47.3282 83.5137 47.3282ZM83.5137 55.672C80.4045 55.672 78.1045 53.5326 78.1045 50.3663C78.1045 47.1571 80.4045 45.146 83.5137 45.146C86.623 45.146 88.923 47.1571 88.923 50.3663C88.923 53.5326 86.623 55.672 83.5137 55.672Z" fill="#295C80"/>
<path d="M93.0112 51.5213V54.1742C93.0112 55.2868 92.2445 55.5007 91.8185 55.5007C91.3926 55.5007 90.626 55.2868 90.626 54.1742V46.8146C90.626 45.8732 91.0519 45.4453 91.9889 45.4453H96.163C97.1426 45.4453 97.313 46.1299 97.313 46.4722C97.313 46.8146 97.1426 47.4992 96.163 47.4992H93.0112V49.5531H95.8648C96.8018 49.5531 96.9723 50.2376 96.9723 50.5372C96.9723 50.8795 96.8018 51.5213 95.8648 51.5213H93.0112Z" fill="#295C80"/>
<path d="M101.019 51.5213V54.1742C101.019 55.2868 100.252 55.5007 99.8264 55.5007C99.4004 55.5007 98.6338 55.2868 98.6338 54.1742V46.8146C98.6338 45.8732 99.0597 45.4453 99.9968 45.4453H104.171C105.15 45.4453 105.321 46.1299 105.321 46.4722C105.321 46.8146 105.15 47.4992 104.171 47.4992H101.019V49.5531H103.873C104.81 49.5531 104.98 50.2376 104.98 50.5372C104.98 50.8795 104.81 51.5213 103.873 51.5213H101.019Z" fill="#295C80"/>
<path d="M110.261 47.3708H108.983V49.6814H110.133C110.9 49.6814 111.88 49.4674 111.88 48.4833C111.88 47.5847 110.985 47.3708 110.261 47.3708ZM109.878 51.4358H109.026V54.217C109.026 55.3295 108.217 55.5435 107.833 55.5435C107.45 55.5435 106.641 55.3295 106.641 54.217V46.8146C106.641 45.8732 107.067 45.4453 108.004 45.4453H110.431C113.2 45.4453 114.222 46.8146 114.222 48.4405C114.222 49.767 113.455 50.7083 112.22 51.0934L114.052 53.5752C114.265 53.8747 114.35 54.1742 114.35 54.3882C114.35 55.03 113.839 55.5007 113.2 55.5007C112.902 55.5007 112.518 55.3723 112.178 54.9017L109.878 51.4358Z" fill="#295C80"/>
<path d="M120.867 47.3282C119.206 47.3282 118.056 48.6119 118.056 50.3663C118.056 52.1633 119.206 53.4471 120.867 53.4471C122.528 53.4471 123.721 52.1633 123.721 50.3663C123.721 48.6547 122.528 47.3282 120.867 47.3282ZM120.867 55.672C117.758 55.672 115.458 53.5326 115.458 50.3663C115.458 47.1571 117.758 45.146 120.867 45.146C123.977 45.146 126.276 47.1571 126.276 50.3663C126.276 53.5326 123.977 55.672 120.867 55.672Z" fill="#295C80"/>
<path d="M129.385 55.4153C128.448 55.4153 128.022 54.9875 128.022 54.0462V46.6437C128.022 45.4883 128.831 45.2744 129.214 45.2744C129.598 45.2744 130.407 45.4883 130.407 46.6437V53.2759H133.218C134.198 53.2759 134.411 54.0033 134.411 54.3029C134.411 54.6452 134.241 55.3726 133.218 55.3726H129.385V55.4153Z" fill="#295C80"/>
<path d="M136.881 55.4153C135.944 55.4153 135.519 54.9875 135.519 54.0462V46.6437C135.519 45.4883 136.327 45.2744 136.711 45.2744C137.094 45.2744 137.903 45.4883 137.903 46.6437V53.2759H140.715C141.694 53.2759 141.907 54.0033 141.907 54.3029C141.907 54.6452 141.737 55.3726 140.715 55.3726H136.881V55.4153Z" fill="#295C80"/>
<path d="M142.802 53.9176C142.802 53.3185 143.27 52.8051 143.909 52.8051C144.165 52.8051 144.42 52.8906 144.718 53.1474C145.102 53.4041 145.783 53.7036 146.379 53.7036C146.975 53.7036 147.572 53.4041 147.572 52.6339C147.572 51.8637 146.805 51.6497 145.527 51.2219C144.25 50.794 143.014 50.1522 143.014 48.355C143.014 46.13 145.016 45.2314 146.848 45.2314C147.614 45.2314 148.509 45.4454 149.105 45.7877C149.616 46.0872 149.744 46.4295 149.744 46.7719C149.744 47.3281 149.318 47.8416 148.722 47.8416C148.509 47.8416 148.381 47.7988 148.04 47.6276C147.486 47.3281 147.103 47.1997 146.72 47.1997C146.038 47.1997 145.4 47.4992 145.4 48.1839C145.4 48.8257 145.996 49.0397 146.933 49.3392C148.296 49.767 150 50.3661 150 52.3344C150 54.645 148.168 55.6719 146.209 55.6719C145.229 55.6719 143.951 55.3296 143.355 54.8589C142.929 54.5166 142.802 54.1743 142.802 53.9176Z" fill="#295C80"/>
</g>
</g>
<defs>
<filter id="filter0_dddd_93_727" x="-10" y="-2" width="220" height="138" filterUnits="userSpaceOnUse" color-interpolation-filters="sRGB">
<feFlood flood-opacity="0" result="BackgroundImageFix"/>
<feColorMatrix in="SourceAlpha" type="matrix" values="0 0 0 0 0 0 0 0 0 0 0 0 0 0 0 0 0 0 127 0" result="hardAlpha"/>
<feOffset dy="2"/>
<feGaussianBlur stdDeviation="2"/>
<feColorMatrix type="matrix" values="0 0 0 0 0.501961 0 0 0 0 0.501961 0 0 0 0 0.501961 0 0 0 0.1 0"/>
<feBlend mode="normal" in2="BackgroundImageFix" result="effect1_dropShadow_93_727"/>
<feColorMatrix in="SourceAlpha" type="matrix" values="0 0 0 0 0 0 0 0 0 0 0 0 0 0 0 0 0 0 127 0" result="hardAlpha"/>
<feOffset dy="7"/>
<feGaussianBlur stdDeviation="3.5"/>
<feColorMatrix type="matrix" values="0 0 0 0 0.501961 0 0 0 0 0.501961 0 0 0 0 0.501961 0 0 0 0.09 0"/>
<feBlend mode="normal" in2="effect1_dropShadow_93_727" result="effect2_dropShadow_93_727"/>
<feColorMatrix in="SourceAlpha" type="matrix" values="0 0 0 0 0 0 0 0 0 0 0 0 0 0 0 0 0 0 127 0" result="hardAlpha"/>
<feOffset dy="15"/>
<feGaussianBlur stdDeviation="4.5"/>
<feColorMatrix type="matrix" values="0 0 0 0 0.501961 0 0 0 0 0.501961 0 0 0 0 0.501961 0 0 0 0.05 0"/>
<feBlend mode="normal" in2="effect2_dropShadow_93_727" result="effect3_dropShadow_93_727"/>
<feColorMatrix in="SourceAlpha" type="matrix" values="0 0 0 0 0 0 0 0 0 0 0 0 0 0 0 0 0 0 127 0" result="hardAlpha"/>
<feOffset dy="26"/>
<feGaussianBlur stdDeviation="5"/>
<feColorMatrix type="matrix" values="0 0 0 0 0.501961 0 0 0 0 0.501961 0 0 0 0 0.501961 0 0 0 0.01 0"/>
<feBlend mode="normal" in2="effect3_dropShadow_93_727" result="effect4_dropShadow_93_727"/>
<feBlend mode="normal" in="SourceGraphic" in2="effect4_dropShadow_93_727" result="shape"/>
</filter>
<clipPath id="clip0_93_727">
<rect width="100" height="24.8175" fill="white" transform="translate(50 38)"/>
</clipPath>
</defs>
</svg>
