<svg width="410" height="72" viewBox="0 0 410 72" fill="none" xmlns="http://www.w3.org/2000/svg">
<path d="M62.5237 27.0571L61.9122 25.2227L61.53 27.1335C60.46 33.3246 56.5619 48.1526 45.0205 52.6622C44.9441 52.6622 44.9441 52.7386 44.8676 52.7386L40.7402 54.8787L45.0205 53.8086C53.6574 51.5921 61.0714 46.0125 62.4472 44.866L62.6001 44.7895L62.6765 44.6367C63.5937 41.8851 64.0523 38.9806 64.0523 36.0762C64.0523 33.0188 63.5173 29.9615 62.5237 27.0571Z" fill="#606060"/>
<path d="M54.1919 41.4255L52.7397 45.935L54.9562 42.1134C59.4658 34.4701 60.7651 25.2981 60.918 23.5401V23.3873L60.8416 23.2344C58.09 17.9605 53.6568 13.6038 48.383 10.9287L46.625 10.0879L47.6951 11.693C51.3639 16.8904 59.0836 30.1134 54.1919 41.4255Z" fill="#5C73F6"/>
<path d="M52.6622 26.9804C52.6622 27.0569 52.7386 27.0569 52.7386 27.1333L54.8787 31.1842L53.8086 26.9804C51.5921 18.3435 46.0125 10.9295 44.866 9.55367L44.7895 9.40081L44.6367 9.32437C38.9806 7.56641 32.7895 7.56641 27.0571 9.47724L25.2227 10.0887L27.1335 10.4709C33.3246 11.6174 48.1526 15.5155 52.6622 26.9804Z" fill="#606060"/>
<path d="M41.4277 17.8856L45.9372 19.3378L42.0392 17.0448C34.3958 12.5352 25.2239 11.3123 23.4659 11.083H23.313L23.1602 11.1594C17.8863 13.911 13.5296 18.3442 10.8544 23.618L10.0137 25.376L11.6188 24.3059C16.8927 20.7136 30.1156 12.9938 41.4277 17.8856Z" fill="#5C73F6"/>
<path d="M26.9811 19.3377C27.0575 19.3377 27.0575 19.2612 27.1339 19.2612L31.1849 17.1211L26.9811 18.1912C18.3441 20.4077 10.9301 25.9873 9.55431 27.1338L9.40145 27.2103L9.32502 27.3631C8.40782 30.1147 7.94922 33.0192 7.94922 35.9236C7.94922 38.981 8.40782 41.9619 9.40145 44.8663L10.0129 46.7007L10.3951 44.7899C11.618 38.7517 15.5161 23.9236 26.9811 19.3377Z" fill="#606060"/>
<path d="M17.8846 30.5718L19.2604 26.1387L17.0438 29.8839C12.5343 37.5272 11.3113 46.6992 11.082 48.4571V48.61L11.1585 48.7629C13.9101 54.0368 18.3432 58.3934 23.6171 61.0686L25.375 61.9094L24.2285 60.3807C20.7126 55.1833 12.9929 41.9603 17.8846 30.5718Z" fill="#5C73F6"/>
<path d="M19.3377 45.0195C19.3377 44.9431 19.2612 44.9431 19.2612 44.8666L17.1211 40.7393L18.1912 45.0195C20.4077 53.6565 25.9873 61.0705 27.1338 62.4463L27.2103 62.5991L27.3631 62.6756C30.1147 63.5928 33.0192 64.0514 35.9236 64.0514C38.981 64.0514 41.9619 63.5928 44.8663 62.5991L46.7007 61.9877L44.7899 61.6055C38.7517 60.459 23.9236 56.5609 19.3377 45.0195Z" fill="#606060"/>
<path d="M38.6742 55.7967C35.8462 55.7967 33.0946 55.2617 30.5723 54.1916L25.9863 52.7394L29.8844 55.0324C37.5277 59.5419 46.6997 60.7649 48.4577 60.9942H48.6105L48.7634 60.9177C54.0373 58.1661 58.394 53.733 61.0691 48.4591L61.9099 46.7012L60.3812 47.8477C56.0245 50.8286 47.3876 55.7967 38.6742 55.7967Z" fill="#5C73F6"/>
<path d="M36 1.14648C16.7388 1.14648 1.14648 16.7388 1.14648 36C1.14648 55.2611 16.8153 70.9299 36.0764 70.9299C55.3376 70.9299 71.0064 55.2611 71.0064 36C70.9299 16.7388 55.3376 1.14648 36 1.14648ZM36 64.586C20.2548 64.586 7.414 51.8216 7.414 36C7.414 20.2548 20.1783 7.414 36 7.414C51.7452 7.414 64.586 20.1783 64.586 36C64.586 51.8216 51.8216 64.586 36 64.586Z" fill="#4A5262"/>
<path d="M36 0C16.1274 0 0 16.1274 0 36C0 55.8726 16.1274 72 36 72C55.8726 72 72 55.8726 72 36C72.0764 16.1274 55.8726 0 36 0ZM36 69.8599C17.3503 69.8599 2.21656 54.7261 2.21656 36.0764C2.21656 17.4268 17.3503 2.29299 36 2.29299C54.6497 2.29299 69.7834 17.4268 69.7834 36.0764C69.8599 54.6497 54.6497 69.8599 36 69.8599Z" fill="#4A5262"/>
<path d="M64.0505 45.5539C65.0441 42.573 65.6556 39.3629 65.6556 35.9998C65.6556 31.3374 64.5855 26.9043 62.5983 22.9297C62.5983 22.9297 62.5983 22.8533 62.5218 22.8533C59.0823 15.8979 52.9677 10.4711 45.5537 7.94885C42.5728 6.95521 39.3626 6.34375 35.9995 6.34375C31.3371 6.34375 26.904 7.41381 22.9295 9.40107C15.9741 12.8406 10.5473 18.9552 8.02502 26.3692C7.03139 29.3501 6.41992 32.5603 6.41992 35.9234C6.41992 40.5858 7.48999 45.0189 9.47725 48.9934C9.47725 48.9934 9.47725 49.0699 9.55368 49.0699C12.9932 56.0253 19.1078 61.452 26.5218 63.9743H26.5983C29.5792 64.9679 32.7129 65.503 36.076 65.503C40.7384 65.503 45.1715 64.4329 49.146 62.4457C49.2225 62.4457 49.2225 62.3692 49.2989 62.3692C56.1779 59.0062 61.5282 52.9679 64.0505 45.5539ZM62.2161 44.4839C60.8403 45.5539 53.5027 51.1336 44.9422 53.3501C45.0951 53.2737 45.1715 53.2737 45.3244 53.1973C56.7894 48.6877 60.7639 34.3183 62.0632 27.2864C62.9804 30.038 63.5155 33.0189 63.5155 36.0762C63.5155 38.9807 63.0569 41.8087 62.2161 44.4839ZM18.8785 35.9998C18.8785 26.5221 26.5983 18.8023 36.076 18.8023C45.5537 18.8023 53.2734 26.5221 53.2734 35.9998C53.2734 45.4775 45.4772 53.1973 35.9995 53.1973C26.5218 53.1973 18.8785 45.4775 18.8785 35.9998ZM60.4581 23.5412C60.2288 25.2992 59.0059 34.3947 54.5728 41.8852C54.5728 41.8087 54.6492 41.7323 54.6492 41.5794C59.5409 30.2673 52.2798 17.2737 48.2288 11.3883C53.5027 14.0635 57.783 18.2673 60.4581 23.5412ZM44.4836 9.85967C45.5537 11.2355 51.1333 18.573 53.3499 27.1336C53.2734 26.9807 53.2734 26.9043 53.197 26.7514C48.6874 15.2864 34.318 11.3119 27.3626 10.0125C30.1142 9.09534 33.0951 8.56031 36.1524 8.56031C38.9804 8.56031 41.8085 9.01891 44.4836 9.85967ZM23.5409 11.5412C25.2989 11.7705 34.3944 12.9934 41.8849 17.4266C41.8085 17.4266 41.732 17.3501 41.6556 17.3501C30.3435 12.4584 17.3499 19.7195 11.4645 23.7705C14.0632 18.573 18.2671 14.2164 23.5409 11.5412ZM9.85941 27.5922C11.2352 26.5221 18.5728 20.9425 27.0569 18.7259C26.9804 18.8023 26.8276 18.8023 26.7511 18.8788C15.2862 23.3883 11.3116 37.7578 10.0123 44.7132C9.09508 41.9616 8.56005 38.9807 8.56005 35.9234C8.56005 33.0953 9.01865 30.2673 9.85941 27.5922ZM11.5409 48.5348C11.7702 46.7769 12.9932 37.6813 17.4263 30.1909C17.4263 30.2673 17.3499 30.3437 17.3499 30.4202C12.4581 41.7323 19.7193 54.7259 23.7702 60.6113C18.5728 58.0125 14.2161 53.7323 11.5409 48.5348ZM27.5919 62.2164C26.5218 60.8406 20.9422 53.503 18.7257 44.9425C18.8021 45.0953 18.8021 45.1718 18.8785 45.3246C23.3881 56.7896 37.7575 60.7641 44.7893 62.0635C42.0378 62.9807 39.0569 63.5157 35.9995 63.5157C33.0951 63.5157 30.2671 63.0571 27.5919 62.2164ZM48.5346 60.4584C46.7766 60.2291 37.6811 59.0062 30.1906 54.573C30.2671 54.573 30.3435 54.6495 30.4199 54.6495C33.0951 55.796 35.8467 56.331 38.6747 56.331C47.5409 56.331 56.1779 51.3629 60.6874 48.2291C58.0123 53.503 53.732 57.7832 48.5346 60.4584Z" fill="white"/>
<path d="M30.7255 24.306C30.3433 24.306 29.9611 24.0767 29.8083 23.6945C29.579 23.1595 29.7318 22.548 30.2669 22.2423C32.0248 21.4015 33.8592 20.8665 35.8465 20.79C36.4579 20.79 36.9165 21.2486 36.9165 21.7837C36.9165 22.3951 36.4579 22.8537 35.9229 22.8537C34.2414 22.9302 32.7127 23.3123 31.1841 24.0767C31.0312 24.2295 30.8783 24.306 30.7255 24.306Z" fill="#5C73F6"/>
<path d="M22.93 33.1722C22.7772 33.1722 22.7007 33.1722 22.5479 33.0958C22.0128 32.8665 21.7071 32.255 21.9364 31.72C22.0128 31.5671 23.5415 27.4397 27.1339 24.3059C27.5925 23.9238 28.2804 24.0002 28.6625 24.3824C29.0447 24.841 28.9683 25.5289 28.5861 25.911C25.3759 28.6626 24.0001 32.4079 23.9237 32.4079C23.7708 32.8665 23.3886 33.1722 22.93 33.1722Z" fill="#5C73F6"/>
<path d="M115.584 12.944C117.845 12.9867 120.341 13.136 123.072 13.392C125.803 13.648 128.448 14.1813 131.008 14.992L130.24 22.8C128.363 22.7573 126.059 22.7147 123.328 22.672C120.64 22.6293 117.995 22.608 115.392 22.608C114.411 22.608 113.579 22.6507 112.896 22.736C112.256 22.7787 111.723 22.9067 111.296 23.12C110.912 23.2907 110.635 23.568 110.464 23.952C110.293 24.2933 110.208 24.784 110.208 25.424C110.208 26.448 110.507 27.2373 111.104 27.792C111.744 28.304 112.853 28.8373 114.432 29.392L122.688 32.464C126.272 33.872 128.768 35.6213 130.176 37.712C131.627 39.76 132.352 42.4267 132.352 45.712C132.352 48.1867 132.053 50.2773 131.456 51.984C130.859 53.6907 129.877 55.0347 128.512 56.016C127.189 56.9973 125.419 57.7227 123.2 58.192C121.024 58.6613 118.315 58.896 115.072 58.896C113.579 58.896 111.381 58.7893 108.48 58.576C105.621 58.3627 102.379 57.808 98.752 56.912L99.456 48.464C102.016 48.5067 104.277 48.5707 106.24 48.656C108.245 48.6987 109.973 48.7413 111.424 48.784C112.917 48.784 114.091 48.784 114.944 48.784C116.395 48.784 117.504 48.72 118.272 48.592C119.04 48.4213 119.573 48.144 119.872 47.76C120.171 47.3333 120.32 46.736 120.32 45.968C120.32 45.2427 120.213 44.6667 120 44.24C119.787 43.8133 119.403 43.4507 118.848 43.152C118.336 42.8533 117.632 42.5547 116.736 42.256L107.904 38.736C104.405 37.2853 101.931 35.5573 100.48 33.552C99.0293 31.5467 98.304 28.9227 98.304 25.68C98.304 23.12 98.624 21.0293 99.264 19.408C99.904 17.7867 100.885 16.5067 102.208 15.568C103.573 14.6293 105.365 13.968 107.584 13.584C109.803 13.1573 112.469 12.944 115.584 12.944ZM160.553 25.296C166.697 25.296 169.769 28.2613 169.769 34.192V58H158.121V37.84C158.121 36.816 157.907 36.112 157.481 35.728C157.097 35.344 156.393 35.152 155.369 35.152C154.302 35.152 153.15 35.3013 151.913 35.6C150.718 35.8987 149.203 36.4533 147.369 37.264L146.793 31.248C149.011 29.2853 151.294 27.8133 153.641 26.832C155.987 25.808 158.291 25.296 160.553 25.296ZM146.153 26.192L147.561 32.592L148.585 33.424V58H136.937V26.192H146.153ZM193.148 25.296C196.007 25.296 198.417 25.68 200.38 26.448C202.385 27.216 203.9 28.496 204.924 30.288C205.948 32.08 206.46 34.5547 206.46 37.712V58H197.18L195.58 51.152L194.812 50V37.648C194.769 36.3253 194.428 35.3867 193.788 34.832C193.191 34.2347 192.081 33.936 190.46 33.936C188.796 33.936 186.748 33.9787 184.316 34.064C181.884 34.1067 179.345 34.2133 176.7 34.384L175.676 26.896C177.255 26.5973 179.089 26.3413 181.18 26.128C183.313 25.872 185.447 25.68 187.58 25.552C189.713 25.3813 191.569 25.296 193.148 25.296ZM201.852 38.48L201.788 44.368H188.156C187.175 44.4107 186.449 44.6667 185.98 45.136C185.553 45.5627 185.34 46.16 185.34 46.928V48.144C185.34 48.9547 185.596 49.5947 186.108 50.064C186.663 50.4907 187.473 50.704 188.54 50.704C189.607 50.704 190.737 50.4693 191.932 50C193.127 49.5307 194.3 48.8907 195.452 48.08C196.604 47.2693 197.607 46.3947 198.46 45.456V49.552C198.119 50.2347 197.585 51.088 196.86 52.112C196.177 53.136 195.281 54.1813 194.172 55.248C193.063 56.272 191.719 57.1253 190.14 57.808C188.561 58.4907 186.727 58.832 184.636 58.832C182.716 58.832 180.945 58.4907 179.324 57.808C177.703 57.1253 176.401 56.1227 175.42 54.8C174.481 53.4773 174.012 51.8133 174.012 49.808V46.608C174.012 44.048 174.908 42.064 176.7 40.656C178.535 39.2053 181.009 38.48 184.124 38.48H201.852ZM234.368 25.424C238.464 25.424 241.365 26.896 243.072 29.84C244.821 32.784 245.696 36.9867 245.696 42.448C245.696 46.7573 245.226 50.1067 244.288 52.496C243.392 54.8427 242.048 56.5067 240.256 57.488C238.506 58.4267 236.309 58.896 233.664 58.896C231.317 58.896 229.098 58.5547 227.008 57.872C224.917 57.1467 223.168 55.9733 221.76 54.352L222.528 49.552C223.637 49.8933 224.661 50.2347 225.6 50.576C226.581 50.8747 227.776 51.024 229.184 51.024C230.293 51.024 231.168 50.832 231.808 50.448C232.49 50.0213 232.981 49.2107 233.28 48.016C233.578 46.7787 233.728 44.944 233.728 42.512C233.728 40.08 233.578 38.2453 233.28 37.008C232.981 35.7707 232.512 34.96 231.872 34.576C231.274 34.192 230.485 34 229.504 34C228.224 34 227.157 34.192 226.304 34.576C225.45 34.9173 224.49 35.408 223.424 36.048L221.888 31.312C222.57 30.2027 223.552 29.2 224.832 28.304C226.112 27.408 227.562 26.704 229.184 26.192C230.848 25.68 232.576 25.424 234.368 25.424ZM221.376 26.192L222.464 31.568L223.68 32.528V53.456L223.296 54.224C223.424 55.5467 223.509 56.9547 223.552 58.448C223.637 59.984 223.68 61.456 223.68 62.864V69.84H212.032V26.192H221.376ZM267.229 13.84V58H255.197V13.84H267.229ZM279.965 13.84V22.992H242.397V13.84H279.965ZM288.277 26.192L289.685 32.592L290.837 33.424V58H279.189V26.192H288.277ZM303.765 25.296L302.741 35.984H299.669C298.389 35.984 296.981 36.112 295.445 36.368C293.909 36.624 291.968 37.0507 289.621 37.648L288.917 31.312C291.05 29.3067 293.226 27.8133 295.445 26.832C297.706 25.808 299.882 25.296 301.973 25.296H303.765ZM324.088 25.296C326.947 25.296 329.357 25.68 331.32 26.448C333.325 27.216 334.84 28.496 335.864 30.288C336.888 32.08 337.4 34.5547 337.4 37.712V58H328.12L326.52 51.152L325.752 50V37.648C325.709 36.3253 325.368 35.3867 324.728 34.832C324.131 34.2347 323.021 33.936 321.4 33.936C319.736 33.936 317.688 33.9787 315.256 34.064C312.824 34.1067 310.285 34.2133 307.64 34.384L306.616 26.896C308.195 26.5973 310.029 26.3413 312.12 26.128C314.253 25.872 316.387 25.68 318.52 25.552C320.653 25.3813 322.509 25.296 324.088 25.296ZM332.792 38.48L332.728 44.368H319.096C318.115 44.4107 317.389 44.6667 316.92 45.136C316.493 45.5627 316.28 46.16 316.28 46.928V48.144C316.28 48.9547 316.536 49.5947 317.048 50.064C317.603 50.4907 318.413 50.704 319.48 50.704C320.547 50.704 321.677 50.4693 322.872 50C324.067 49.5307 325.24 48.8907 326.392 48.08C327.544 47.2693 328.547 46.3947 329.4 45.456V49.552C329.059 50.2347 328.525 51.088 327.8 52.112C327.117 53.136 326.221 54.1813 325.112 55.248C324.003 56.272 322.659 57.1253 321.08 57.808C319.501 58.4907 317.667 58.832 315.576 58.832C313.656 58.832 311.885 58.4907 310.264 57.808C308.643 57.1253 307.341 56.1227 306.36 54.8C305.421 53.4773 304.952 51.8133 304.952 49.808V46.608C304.952 44.048 305.848 42.064 307.64 40.656C309.475 39.2053 311.949 38.48 315.064 38.48H332.792ZM358.396 25.296C359.633 25.296 360.998 25.36 362.492 25.488C363.985 25.616 365.478 25.8507 366.972 26.192C368.465 26.4907 369.809 26.9173 371.004 27.472L369.852 34.704C367.932 34.704 366.204 34.704 364.668 34.704C363.132 34.6613 361.702 34.64 360.38 34.64C358.758 34.64 357.478 34.8533 356.54 35.28C355.601 35.7067 354.94 36.4533 354.556 37.52C354.172 38.544 353.98 40.0587 353.98 42.064C353.98 44.0267 354.172 45.5627 354.556 46.672C354.94 47.7387 355.601 48.4853 356.54 48.912C357.478 49.296 358.758 49.488 360.38 49.488C361.105 49.488 362.001 49.488 363.068 49.488C364.134 49.4453 365.308 49.4027 366.588 49.36C367.868 49.2747 369.148 49.168 370.428 49.04L371.516 56.336C369.681 57.232 367.59 57.8507 365.244 58.192C362.94 58.576 360.614 58.768 358.268 58.768C354.257 58.768 351.036 58.2347 348.604 57.168C346.172 56.0587 344.422 54.288 343.356 51.856C342.289 49.3813 341.756 46.1173 341.756 42.064C341.756 37.9253 342.289 34.64 343.356 32.208C344.465 29.776 346.236 28.0267 348.668 26.96C351.1 25.8507 354.342 25.296 358.396 25.296ZM408.799 26.192L401.375 36.88C400.948 37.648 400.394 38.352 399.711 38.992C399.028 39.632 398.474 40.08 398.047 40.336V40.592C398.474 40.848 399.028 41.36 399.711 42.128C400.394 42.896 400.948 43.664 401.375 44.432L409.951 58H397.087L387.103 40.272L395.999 26.192H408.799ZM387.167 13.2V30.992C387.167 32.528 387.06 34.0853 386.847 35.664C386.676 37.2427 386.378 38.7573 385.951 40.208C386.292 41.5307 386.57 42.9387 386.783 44.432C387.039 45.9253 387.167 47.2907 387.167 48.528V58H375.519V13.2H387.167ZM391.071 37.008V43.792H383.647V37.008H391.071Z" fill="#0D0A26"/>
</svg>
