<svg width="32" height="32" viewBox="0 0 32 32" fill="none" xmlns="http://www.w3.org/2000/svg">
<path d="M26.5173 5.40585C27.341 6.23344 27.341 7.61276 26.5173 8.44035C25.6935 9.26794 24.3205 9.26794 23.4967 8.44035C22.673 7.61276 22.673 6.23344 23.4967 5.40585C24.3205 4.57826 25.6935 4.57826 26.5173 5.40585Z" fill="#F25924"/>
<path d="M8.39425 23.6138C9.21804 24.4414 9.21804 25.8207 8.39425 26.6483C7.57047 27.4759 6.19749 27.4759 5.3737 26.6483C4.54991 25.8207 4.54991 24.4414 5.3737 23.6138C6.19749 22.7863 7.51555 22.7863 8.39425 23.6138Z" fill="#F25924"/>
<path d="M22.1789 4.08278C23.0028 3.25519 24.0462 2.86899 25.0896 2.92416L24.3208 2.4276C21.7396 0.82759 18.8838 0 15.9181 0C11.6894 0 7.68026 1.65518 4.6597 4.68968C-0.557623 9.98622 -1.49125 18.0967 2.3531 24.3863L2.84737 25.1587C2.84737 24.1104 3.2318 23.0622 4.00067 22.2346C4.98922 21.2415 6.3622 20.8553 7.62534 21.1311L7.40566 20.745C5.26381 16.9381 5.92285 12.138 8.99832 9.04832C10.8107 7.22763 13.2821 6.17935 15.8632 6.17935C17.5108 6.17935 19.1584 6.62072 20.6412 7.44831L21.0256 7.66901C20.806 6.45521 21.1904 5.07589 22.1789 4.08278Z" fill="#81C3DF"/>
<path d="M29.4834 7.61324L28.9891 6.84082C28.9891 7.88911 28.6046 8.93739 27.8358 9.76502C26.8473 10.7581 25.4743 11.1443 24.2111 10.8685L24.4308 11.2546C26.5726 15.0615 25.9136 19.8616 22.8382 22.9513C21.0259 24.772 18.5544 25.8203 15.9732 25.8203C14.3257 25.8203 12.6782 25.3789 11.1953 24.5513L10.8109 24.3306C11.0855 25.5996 10.701 26.9789 9.71249 27.972C8.88869 28.7996 7.84523 29.1857 6.80176 29.1306L7.57063 29.6272C10.0969 31.172 13.0077 31.9996 15.9184 31.9996C20.1471 31.9996 24.1562 30.3444 27.1768 27.3099C32.449 22.0685 33.3826 13.9581 29.4834 7.61324Z" fill="white"/>
</svg>