<svg width="66" height="64" viewBox="0 0 66 64" fill="none" xmlns="http://www.w3.org/2000/svg">
<g filter="url(#filter0_dddd_0_9)">
<rect width="66" height="64" rx="12" fill="#5B6ED3"/>
<path d="M46.9978 27.2797L46.675 26.3115L46.4733 27.32C45.9086 30.5875 43.8513 38.4134 37.76 40.7934C37.7197 40.7934 37.7197 40.8338 37.6793 40.8338L35.501 41.9633L37.76 41.3985C42.3184 40.2287 46.2313 37.2839 46.9574 36.6788L47.0381 36.6384L47.0784 36.5578C47.5625 35.1055 47.8045 33.5726 47.8045 32.0397C47.8045 30.4262 47.5222 28.8126 46.9978 27.2797Z" fill="#606060"/>
<path d="M42.601 34.8634L41.8346 37.2435L43.0044 35.2265C45.3845 31.1925 46.0702 26.3518 46.1509 25.424V25.3433L46.1106 25.2626C44.6584 22.4792 42.3187 20.1798 39.5352 18.768L38.6074 18.3242L39.1722 19.1713C41.1085 21.9144 45.1828 28.8932 42.601 34.8634Z" fill="#5C73F6"/>
<path d="M41.7934 27.2399C41.7934 27.2802 41.8338 27.2802 41.8338 27.3206L42.9633 29.4586L42.3985 27.2399C41.2287 22.6815 38.2839 18.7686 37.6788 18.0425L37.6384 17.9618L37.5578 17.9214C34.5726 16.9936 31.3051 16.9936 28.2797 18.0021L27.3115 18.3248L28.32 18.5265C31.5875 19.1316 39.4134 21.1889 41.7934 27.2399Z" fill="#606060"/>
<path d="M35.8637 22.4389L38.2438 23.2053L36.1865 21.9951C32.1525 19.6151 27.3118 18.9697 26.3839 18.8486H26.3033L26.2226 18.889C23.4392 20.3412 21.1398 22.6809 19.7279 25.4643L19.2842 26.3921L20.1313 25.8274C22.9147 23.9314 29.8935 19.8571 35.8637 22.4389Z" fill="#5C73F6"/>
<path d="M28.2399 23.207C28.2802 23.207 28.2802 23.1666 28.3205 23.1666L30.4585 22.0371L28.2399 22.6019C23.6815 23.7717 19.7686 26.7165 19.0424 27.3216L18.9618 27.3619L18.9214 27.4426C18.4373 28.8948 18.1953 30.4277 18.1953 31.9606C18.1953 33.5742 18.4374 35.1475 18.9618 36.6804L19.2845 37.6485L19.4862 36.64C20.1316 33.4532 22.1889 25.6273 28.2399 23.207Z" fill="#606060"/>
<path d="M23.4398 29.1356L24.1659 26.7959L22.9961 28.7725C20.6161 32.8065 19.9706 37.6472 19.8496 38.575V38.6557L19.8899 38.7364C21.3422 41.5198 23.6819 43.8192 26.4653 45.2311L27.3931 45.6748L26.788 44.868C24.9324 42.1249 20.8581 35.1462 23.4398 29.1356Z" fill="#5C73F6"/>
<path d="M24.206 36.76C24.206 36.7197 24.1656 36.7197 24.1656 36.6793L23.0361 34.501L23.6009 36.76C24.7707 41.3184 27.7155 45.2313 28.3206 45.9574L28.361 46.0381L28.4416 46.0784C29.8939 46.5625 31.4268 46.8045 32.9597 46.8045C34.5732 46.8045 36.1465 46.5625 37.6794 46.0381L38.6475 45.7154L37.639 45.5137C34.4522 44.9086 26.6264 42.8513 24.206 36.76Z" fill="#606060"/>
<path d="M34.4122 42.4488C32.9196 42.4488 31.4674 42.1665 30.1362 41.6017L27.7158 40.8353L29.7731 42.0454C33.8071 44.4255 38.6478 45.0709 39.5757 45.1919H39.6563L39.737 45.1516C42.5204 43.6994 44.8198 41.3597 46.2317 38.5762L46.6754 37.6484L45.8686 38.2535C43.5693 39.8268 39.0109 42.4488 34.4122 42.4488Z" fill="#5C73F6"/>
<path d="M32.9993 13.6055C22.8338 13.6055 14.6045 21.8347 14.6045 32.0003C14.6045 42.1659 22.8741 50.4355 33.0397 50.4355C43.2052 50.4355 51.4748 42.1659 51.4748 32.0003C51.4345 21.8347 43.2052 13.6055 32.9993 13.6055ZM32.9993 47.0873C24.6894 47.0873 17.9123 40.3506 17.9123 32.0003C17.9123 23.6904 24.649 16.9133 32.9993 16.9133C41.3093 16.9133 48.0863 23.65 48.0863 32.0003C48.0863 40.3506 41.3496 47.0873 32.9993 47.0873Z" fill="#656565"/>
<path d="M32.9999 13C22.5116 13 14 21.5116 14 31.9999C14 42.4882 22.5116 50.9999 32.9999 50.9999C43.4882 50.9999 51.9999 42.4882 51.9999 31.9999C52.0402 21.5116 43.4882 13 32.9999 13ZM32.9999 49.8704C23.1571 49.8704 15.1698 41.8831 15.1698 32.0403C15.1698 22.1974 23.1571 14.2102 32.9999 14.2102C42.8428 14.2102 50.83 22.1974 50.83 32.0403C50.8704 41.8428 42.8428 49.8704 32.9999 49.8704Z" fill="#656565"/>
<path d="M47.8047 37.0428C48.3291 35.4696 48.6518 33.7753 48.6518 32.0004C48.6518 29.5397 48.0871 27.2 47.0382 25.1023C47.0382 25.1023 47.0382 25.062 46.9979 25.062C45.1826 21.3911 41.9555 18.527 38.0425 17.1958C36.4693 16.6713 34.775 16.3486 33.0001 16.3486C30.5394 16.3486 28.1997 16.9134 26.102 17.9622C22.4311 19.7775 19.567 23.0047 18.2358 26.9176C17.7114 28.4908 17.3887 30.1851 17.3887 31.96C17.3887 34.4208 17.9534 36.7604 19.0023 38.8581C19.0023 38.8581 19.0023 38.8984 19.0426 38.8984C20.8579 42.5693 24.085 45.4334 27.998 46.7647H28.0383C29.6116 47.2891 31.2655 47.5714 33.0404 47.5714C35.5011 47.5714 37.8408 47.0067 39.9385 45.9579C39.9788 45.9579 39.9788 45.9175 40.0192 45.9175C43.6497 44.1426 46.4735 40.9558 47.8047 37.0428ZM46.8365 36.4781C46.1104 37.0428 42.2378 39.9876 37.7198 41.1575C37.8005 41.1171 37.8408 41.1171 37.9215 41.0768C43.9724 38.6967 46.0701 31.1129 46.7559 27.4017C47.2399 28.8539 47.5223 30.4271 47.5223 32.0407C47.5223 33.5736 47.2803 35.0662 46.8365 36.4781ZM23.964 32.0004C23.964 26.9983 28.0383 22.924 33.0404 22.924C38.0425 22.924 42.1168 26.9983 42.1168 32.0004C42.1168 37.0025 38.0022 41.0768 33.0001 41.0768C27.998 41.0768 23.964 37.0025 23.964 32.0004ZM45.9087 25.425C45.7877 26.3528 45.1423 31.1532 42.8026 35.1065C42.8026 35.0662 42.8429 35.0258 42.8429 34.9452C45.4247 28.9749 41.5924 22.1172 39.4544 19.011C42.2378 20.4229 44.4969 22.6416 45.9087 25.425ZM37.4778 18.2043C38.0425 18.9304 40.9873 22.803 42.1572 27.321C42.1168 27.2403 42.1168 27.2 42.0765 27.1193C39.6964 21.0684 32.1126 18.9707 28.4417 18.2849C29.8939 17.8009 31.4672 17.5185 33.0808 17.5185C34.5733 17.5185 36.0659 17.7605 37.4778 18.2043ZM26.4247 19.0917C27.3525 19.2127 32.153 19.8582 36.1062 22.1979C36.0659 22.1979 36.0255 22.1575 35.9852 22.1575C30.015 19.5758 23.1572 23.4081 20.0511 25.5461C21.4226 22.803 23.6413 20.5036 26.4247 19.0917ZM19.204 27.563C19.9301 26.9983 23.8027 24.0535 28.2804 22.8836C28.24 22.924 28.1593 22.924 28.119 22.9643C22.0681 25.3444 19.9704 32.9282 19.2846 36.5991C18.8006 35.1469 18.5182 33.5736 18.5182 31.96C18.5182 30.4675 18.7602 28.9749 19.204 27.563ZM20.0914 38.6161C20.2124 37.6883 20.8579 32.8878 23.1976 28.9346C23.1976 28.9749 23.1572 29.0153 23.1572 29.0556C20.5755 35.0258 24.4078 41.8836 26.5458 44.9897C23.8027 43.6182 21.5033 41.3592 20.0914 38.6161ZM28.5627 45.8368C27.998 45.1107 25.0532 41.2381 23.8833 36.7201C23.9237 36.8008 23.9237 36.8411 23.964 36.9218C26.3441 42.9727 33.9279 45.0704 37.6391 45.7562C36.1869 46.2402 34.6137 46.5226 33.0001 46.5226C31.4672 46.5226 29.9746 46.2806 28.5627 45.8368ZM39.6158 44.909C38.688 44.788 33.8876 44.1426 29.9343 41.8029C29.9746 41.8029 30.015 41.8432 30.0553 41.8432C31.4672 42.4483 32.9194 42.7307 34.412 42.7307C39.0914 42.7307 43.6497 40.1086 46.0298 38.4547C44.6179 41.2381 42.3589 43.4972 39.6158 44.909Z" fill="white"/>
<path d="M30.2163 25.8283C30.0146 25.8283 29.8129 25.7073 29.7322 25.5056C29.6112 25.2232 29.6919 24.9005 29.9742 24.7391C30.902 24.2954 31.8702 24.013 32.919 23.9727C33.2417 23.9727 33.4838 24.2147 33.4838 24.4971C33.4838 24.8198 33.2417 25.0618 32.9594 25.0618C32.0719 25.1022 31.2651 25.3039 30.4583 25.7073C30.3776 25.7879 30.2969 25.8283 30.2163 25.8283Z" fill="white"/>
<path d="M26.1022 30.5083C26.0215 30.5083 25.9812 30.5083 25.9005 30.4679C25.6181 30.3469 25.4567 30.0242 25.5778 29.7418C25.6181 29.6612 26.4249 27.4828 28.3209 25.8289C28.5629 25.6272 28.9259 25.6675 29.1276 25.8692C29.3293 26.1113 29.289 26.4743 29.0873 26.676C27.393 28.1283 26.6669 30.1049 26.6266 30.1049C26.5459 30.3469 26.3442 30.5083 26.1022 30.5083Z" fill="white"/>
</g>
<defs>
<filter id="filter0_dddd_0_9" x="-10" y="-2" width="86" height="102" filterUnits="userSpaceOnUse" color-interpolation-filters="sRGB">
<feFlood flood-opacity="0" result="BackgroundImageFix"/>
<feColorMatrix in="SourceAlpha" type="matrix" values="0 0 0 0 0 0 0 0 0 0 0 0 0 0 0 0 0 0 127 0" result="hardAlpha"/>
<feOffset dy="2"/>
<feGaussianBlur stdDeviation="2"/>
<feColorMatrix type="matrix" values="0 0 0 0 0.501961 0 0 0 0 0.501961 0 0 0 0 0.501961 0 0 0 0.1 0"/>
<feBlend mode="normal" in2="BackgroundImageFix" result="effect1_dropShadow_0_9"/>
<feColorMatrix in="SourceAlpha" type="matrix" values="0 0 0 0 0 0 0 0 0 0 0 0 0 0 0 0 0 0 127 0" result="hardAlpha"/>
<feOffset dy="7"/>
<feGaussianBlur stdDeviation="3.5"/>
<feColorMatrix type="matrix" values="0 0 0 0 0.501961 0 0 0 0 0.501961 0 0 0 0 0.501961 0 0 0 0.09 0"/>
<feBlend mode="normal" in2="effect1_dropShadow_0_9" result="effect2_dropShadow_0_9"/>
<feColorMatrix in="SourceAlpha" type="matrix" values="0 0 0 0 0 0 0 0 0 0 0 0 0 0 0 0 0 0 127 0" result="hardAlpha"/>
<feOffset dy="15"/>
<feGaussianBlur stdDeviation="4.5"/>
<feColorMatrix type="matrix" values="0 0 0 0 0.501961 0 0 0 0 0.501961 0 0 0 0 0.501961 0 0 0 0.05 0"/>
<feBlend mode="normal" in2="effect2_dropShadow_0_9" result="effect3_dropShadow_0_9"/>
<feColorMatrix in="SourceAlpha" type="matrix" values="0 0 0 0 0 0 0 0 0 0 0 0 0 0 0 0 0 0 127 0" result="hardAlpha"/>
<feOffset dy="26"/>
<feGaussianBlur stdDeviation="5"/>
<feColorMatrix type="matrix" values="0 0 0 0 0.501961 0 0 0 0 0.501961 0 0 0 0 0.501961 0 0 0 0.01 0"/>
<feBlend mode="normal" in2="effect3_dropShadow_0_9" result="effect4_dropShadow_0_9"/>
<feBlend mode="normal" in="SourceGraphic" in2="effect4_dropShadow_0_9" result="shape"/>
</filter>
</defs>
</svg>